<svg id="图层_1" data-name="图层 1" xmlns="http://www.w3.org/2000/svg" xmlns:xlink="http://www.w3.org/1999/xlink" viewBox="0 0 1024 1024">
    <defs>
        <symbol id="hanabishi-logo-core" data-name="hanabishi-logo-core" viewBox="0 0 1000 1000">
            <path class="cls-1" d="M423.3 342.01L500 123.07l76.7 218.94L500 485.62l-76.7-143.61zm-97.25 182.12L141.52 383.52l231.93-5.29 112.87 117.33-160.27 28.57zM469.19 672.9L278.44 804.94l66.64-222.21 146.47-71.1-22.36 161.27zm185.72-90.17l66.64 222.21L530.81 672.9l-22.36-161.27 146.46 71.1zm-28.36-204.5l231.93 5.29-184.52 140.61-160.28-28.57 112.87-117.33z"/>
            <circle cx="500" cy="500" r="500" fill="none"/>
        </symbol>
        <symbol id="hanabishi-logo-full" data-name="hanabishi-logo-full" viewBox="0 0 1000 1024.68">
            <path class="cls-1" d="M250.31 900.21L219 878.82l-13.4 19.59a3.36 3.36 0 00-.69 2.25 4.71 4.71 0 001.28 2.36l-.87 1.27-17-11.58.87-1.27a4.9 4.9 0 002.7.32 3.22 3.22 0 001.8-1.45l31.45-46.07a3.25 3.25 0 00.7-2.21 5 5 0 00-1.29-2.4l.87-1.27 17 11.58-.87 1.27a4.56 4.56 0 00-2.69-.34 3.31 3.31 0 00-1.82 1.47l-12 17.52 31.34 21.39 12-17.52a3.39 3.39 0 00.71-2.23 4.64 4.64 0 00-1.3-2.37l.87-1.28 17 11.58-.87 1.28a4.94 4.94 0 00-2.7-.33 3.32 3.32 0 00-1.81 1.45L248.8 927.9a3.31 3.31 0 00-.69 2.22 4.93 4.93 0 001.29 2.39l-.87 1.28-17-11.58.87-1.28a4.61 4.61 0 002.67.33 3.28 3.28 0 001.84-1.46zm66.24 47.2l-27.33-12.16-7.81 6.66a7.71 7.71 0 00-2.07 2.4c-.57 1.29 0 2.63 1.75 4l-.62 1.41-19.89-8.85.62-1.41a5.76 5.76 0 003.24 0 13.09 13.09 0 003.64-2.49l42.67-36.37a9.68 9.68 0 002.63-3.06q.9-2-1.26-4l.62-1.41 21.32 9.48-.62 1.41q-2.94-.41-3.76 1.45a7 7 0 00-.45 3.28l2.29 56.53a16.92 16.92 0 00.76 5.17 6.08 6.08 0 002.31 2.74l-.63 1.41-22.13-9.85.63-1.41c2.08.54 3.46.07 4.13-1.43a7.86 7.86 0 00.33-3.12zm-.11-9.92l-.22-25.76-19.44 17zm56.64.01l-9.34 38.91a3.34 3.34 0 00.13 2.36 4.89 4.89 0 002.05 1.78l-.36 1.5-18.8-4.51.36-1.5a4.89 4.89 0 002.64-.66 3.32 3.32 0 001.18-2l13-54.2a3.27 3.27 0 00-.14-2.31 4.89 4.89 0 00-2.05-1.78l.36-1.5 21.75 5.22-.36 1.5c-1.43 0-2.27.58-2.53 1.67a3.89 3.89 0 00.71 2.8l26.49 45.18 9.12-38a3.27 3.27 0 00-.14-2.31 4.89 4.89 0 00-2.05-1.78l.36-1.5 18.8 4.51-.36 1.5a4.89 4.89 0 00-2.64.66 3.27 3.27 0 00-1.18 2l-13 54.2a3.34 3.34 0 00.13 2.36 4.89 4.89 0 002 1.78l-.36 1.5-20.1-4.88.36-1.5c1.38 0 2.2-.48 2.46-1.54.15-.63-.36-1.9-1.51-3.84zm115.4 45.79l-29.88-1.55-4.9 9a7.68 7.68 0 00-1.07 3q-.11 2.12 3.07 3.1l-.08 1.54-21.74-1.13.08-1.54a5.78 5.78 0 003-1.19 13.14 13.14 0 002.51-3.64l26.79-49.25a9.58 9.58 0 001.36-3.79c.07-1.48-.8-2.59-2.63-3.33l.08-1.54 23.3 1.21-.08 1.54c-1.92.45-2.91 1.35-3 2.7a7.06 7.06 0 00.75 3.22l22.4 52a17.11 17.11 0 002.57 4.55 6.2 6.2 0 003.14 1.73l-.08 1.54-24.19-1.26.08-1.54q3.21-.36 3.34-2.82a7.89 7.89 0 00-.81-3zm-3.67-9.22l-9.44-24-12 22.84zm96.03-14.86q11.5 2.84 12.86 14.09 1.08 9-4.72 14.8a20.91 20.91 0 01-7.1 4.57 43.07 43.07 0 01-10.47 2.4l-44.66 5.37-.18-1.53a5 5 0 002.24-1.53 3.32 3.32 0 00.4-2.33l-6.65-55.29a3.36 3.36 0 00-.95-2.17 4.93 4.93 0 00-2.54-1l-.18-1.53 44.23-5.32a45 45 0 0110.36-.28 17.9 17.9 0 017.19 2.44q6.33 3.9 7.33 12.46 1.18 9.57-7.16 14.85zm-41.5-.2l25-3q5.7-.69 7.74-2.64 2.31-2.22 1.83-6.24c-.33-2.74-1.37-4.6-3.1-5.57s-4.51-1.23-8.3-.78l-25 3zm3.44 28.58l24.22-2.92q6.75-.81 9.5-3 3.13-2.57 2.55-7.44c-.39-3.23-1.8-5.43-4.25-6.63q-3.13-1.51-9.94-.7l-24.22 2.92zm69.49-5.38l-13.38-54.11a3.28 3.28 0 00-1.19-2 5 5 0 00-2.64-.64l-.37-1.5 19.94-4.96.37 1.5a4.57 4.57 0 00-2 1.77 3.33 3.33 0 00-.11 2.34l13.38 54.11a3.36 3.36 0 001.22 2 4.62 4.62 0 002.62.62l.37 1.5-19.94 4.93-.37-1.5a5 5 0 002-1.79 3.36 3.36 0 00.1-2.27zM683 901.28l-2 17.27-1.53-.26c-.09-.31-.16-.55-.23-.74q-.57-1.53-3.85-2.32a34.36 34.36 0 00-21 1.43 29.37 29.37 0 00-8 4.31 10.78 10.78 0 00-3.31 4.32 6.14 6.14 0 00-.19 4.54q1.29 3.48 6 3.17a68.79 68.79 0 009.81-2.1l7.36-1.92A62.36 62.36 0 01677 927a25.38 25.38 0 018.16.72 16.47 16.47 0 017 4 18.36 18.36 0 014.66 7.06 18.69 18.69 0 01.1 13.12q-2.08 6-9.26 11.21a50.33 50.33 0 01-12.16 6.43 57.78 57.78 0 01-26.36 3.12 13.73 13.73 0 00-3.47-.05 4.15 4.15 0 00-1.48 1.68l-1.56-.19 1.05-17.62 1.55.14c.1.27.17.47.22.59a5.27 5.27 0 003.34 3q3.9 1.53 10.76 1.14a42.38 42.38 0 0012.37-2.35 25.19 25.19 0 009.51-5.85 10.68 10.68 0 002.63-4.39 6.9 6.9 0 000-4.43q-1.14-3.06-4.93-3.14-2.64 0-9.93 1.79l-7.22 1.87a103.29 103.29 0 01-10.41 2.3 27.16 27.16 0 01-6.57 0 16.05 16.05 0 01-8.73-3.7 17.49 17.49 0 01-5.26-7.62 18.2 18.2 0 01.57-14.93q4.54-9.37 18.64-14.61a50.82 50.82 0 0111.47-2.9 88.86 88.86 0 0114.39-.32 14.48 14.48 0 003.6-.15 3.94 3.94 0 001.82-1.87zm70.07-3.2l-32.8 19.09 11.94 20.5a3.25 3.25 0 001.73 1.58 4.66 4.66 0 002.68-.13l.77 1.33-17.75 10.33-.77-1.33a4.92 4.92 0 001.45-2.3 3.31 3.31 0 00-.53-2.26l-28.06-48.21a3.31 3.31 0 00-1.7-1.58 5 5 0 00-2.71.13l-.78-1.33 17.75-10.33.78 1.33a4.51 4.51 0 00-1.47 2.28 3.34 3.34 0 00.55 2.27l10.67 18.34 32.79-19.09-10.67-18.33a3.34 3.34 0 00-1.71-1.6 4.59 4.59 0 00-2.7.15l-.78-1.33 17.75-10.33.78 1.33a4.92 4.92 0 00-1.45 2.3 3.27 3.27 0 00.53 2.25l28.06 48.22a3.25 3.25 0 001.7 1.57 4.85 4.85 0 002.71-.13l.78 1.34-17.76 10.33-.77-1.34a4.57 4.57 0 001.44-2.26 3.3 3.3 0 00-.52-2.29zm42.27-.81l-33.93-44.22a3.34 3.34 0 00-1.89-1.35 5 5 0 00-2.67.48l-.94-1.23 16.29-12.5.94 1.22a4.56 4.56 0 00-1.16 2.45 3.34 3.34 0 00.83 2.19l33.92 44.21a3.42 3.42 0 001.95 1.4 4.81 4.81 0 002.65-.48l.93 1.22-16.26 12.5-.94-1.22a4.93 4.93 0 001.15-2.46 3.4 3.4 0 00-.87-2.21z"/>
            <use width="1000" height="1000" xlink:href="#hanabishi-logo-core"/>
        </symbol>
        <style>
            .cls-1{fill:#e45250}
        </style>
    </defs>
    <use width="1000" height="1024.68" transform="translate(12 12)" xlink:href="#hanabishi-logo-full"/>
</svg>
